# xmcd CD database file
#
# Track frame offsets:
#	150
#	54296
#	108626
#	162803
#
# Disc length: 2893 seconds
#
# Revision: 0
# Processed by: cddbd v1.5.1PL0 Copyright (c) Steve Scherf et al.
# Submitted via: CDex 1.51
#
DISCID=290b4b04
DTITLE=Dominique LANGHAM - Douceur de pluie
DYEAR=2004
DGENRE=New Age
TTITLE0=Nymphéa, fleur de pluie
TTITLE1=Murmures sous la pluie
TTITLE2=Songe d'une pluie d'été
TTITLE3=Comme une pluie d'étoiles argentées
EXTD=YEAR: 2004
EXTT0=
EXTT1=
EXTT2=
EXTT3=
PLAYORDER=
